<svg width="36" height="36" viewBox="0 0 36 36" fill="none" xmlns="http://www.w3.org/2000/svg">
<path d="M26.7073 18.6307C26.6704 14.6324 30.065 12.6872 30.2203 12.5966C28.2977 9.86366 25.3178 9.49026 24.2707 9.46048C21.7679 9.20369 19.3403 10.9206 18.0654 10.9206C16.765 10.9206 14.8017 9.48529 12.6858 9.52747C9.96293 9.56841 7.41566 11.1055 6.0186 13.4923C3.13542 18.359 5.28572 25.5108 8.04802 29.4446C9.42981 31.3712 11.0444 33.5223 13.1578 33.4466C15.2254 33.3635 15.9978 32.1614 18.4929 32.1614C20.9651 32.1614 21.6903 33.4466 23.8457 33.3983C26.0647 33.3635 27.4618 31.463 28.7952 29.519C30.392 27.3108 31.0333 25.1362 31.0588 25.0245C31.0066 25.0071 26.7493 23.4229 26.7073 18.6307Z" fill="#403F3D"/>
<path d="M22.6357 6.87268C23.7477 5.51675 24.5086 3.67205 24.2974 1.80005C22.6879 1.86952 20.675 2.88554 19.5159 4.21169C18.4903 5.38029 17.5742 7.29571 17.8109 9.097C19.6189 9.2285 21.4753 8.20752 22.6357 6.87268Z" fill="#403F3D"/>
</svg>
